<svg id="Layer_1" data-name="Layer 1" xmlns="http://www.w3.org/2000/svg" viewBox="0 0 98.14 98"><defs><style>.cls-1{fill:#fff;}</style></defs><path class="cls-1" d="M79.28,10.41C58.65,14.33,37.65,41.46,32,72.25,55.31,79.65,76.67,75.19,96.1,63a49.75,49.75,0,0,0,1.71-8.36A49,49,0,0,0,79.28,10.41ZM58.65,1C57.34.7,56,.48,54.65.32A48.84,48.84,0,0,0,19.76,9.74C11,31,18.05,60.26,27.51,74.25,26.21,62.39,33.43,16.34,58.65,1ZM6,25.6a49.06,49.06,0,0,0,37.5,72.21c.71.08,1.42.14,2.13.19C19.06,84.38,7.48,64.57,6,25.6ZM29.31,76.68c6.11,9,17.19,15.89,28,20.76A49.09,49.09,0,0,0,84.47,83C68.55,87.13,50.17,86.37,29.31,76.68Z"/></svg>